:SAMPLES-PER-SECOND 30
:FULLY-SPECIFIED
:DEGREES
137
root  34.88505807 36.56472334 -14.27322748 10.35233593 -0.4078446925 4.475279331
lowerback  -8.77534008 1.774580121 0.6684856415
upperback  -3.938250065 1.891919971 -4.640779972
thorax  1.014129996 0.6920180321 -5.019760132
lowerneck  -11.29740047 -9.230810165 -5.410059929
upperneck  11.13469982 -13.00430012 8.331469536
head  6.135781765 -6.093589783 2.283750057
lclavicle  0 -4.497500157e-015 -2.743230041e-014
lhumerus  -47.54389954 30.48010063 61.85820007
lradius  -0.1117162704 -6.507048965e-006 28.53099823
lwrist  3.192251654e-007 -3.790274832e-007 -30.54789925
lhand  -3.489742289e-031 -37.23160172 -10.94869995
lfingers  90 7.125020027 -90
lthumb  95.03165436 -25.76711082 101.449585
rclavicle  0 -4.497500157e-015 -2.743230041e-014
rhumerus  56.29249954 -23.72310066 -50.4530983
rradius  -5.16745672e-007 2.214343908e-008 43.21590042
rwrist  0.0006954420824 -0.004670973402 -160.4620056
rhand  -3.181177586e-031 4.534289837 -5.235429764
rfingers  -90 -7.125020027 -90
rthumb  -83.86245728 -10.52215576 -59.50860596
rfemur  -11.95844841 13.93955898 12.34448719
rtibia  -1.142835855 -1.052347779 19.63490677
rfoot  0.2991409302 -20.62298203 -37.95848083
rtoes  4.018244267 19.60474014 -101.8226547
lfemur  -5.420280933 -17.71200752 -22.63736916
ltibia  6.466808319 0.2274525315 8.26832962
lfoot  0.6897667646 -23.16202545 34.47953796
ltoes  -8.566979408 -18.14054489 -115.8200378
138
root  34.88662299 36.56955629 -14.27341822 10.3534832 -0.3593426943 4.494297504
lowerback  -8.759679794 1.783989906 0.6795015931
upperback  -3.942110062 1.903229952 -4.650619984
thorax  1.003209949 0.6982110143 -5.035590172
lowerneck  -11.30720043 -9.255550385 -5.450719833
upperneck  11.13528728 -13.03820038 8.370759964
head  6.132387638 -6.108799934 2.297559977
lclavicle  0 -4.497500157e-015 -2.743230041e-014
lhumerus  -47.55509949 30.48749733 61.84579849
lradius  -0.1117162704 -6.507048965e-006 28.55919838
lwrist  3.192251654e-007 -3.790274832e-007 -30.53129959
lhand  -3.498950551e-031 -37.24530029 -10.83619976
lfingers  90 7.125020027 -90
lthumb  95.01339722 -25.65637016 101.453598
rclavicle  0 -4.497500157e-015 -2.743230041e-014
rhumerus  56.68960571 -23.80410004 -50.88199997
rradius  -5.16745672e-007 2.214343908e-008 42.79309845
rwrist  0.0006954420824 -0.004670973402 -159.9060059
rhand  -3.193311093e-031 4.381810188 -5.056729794
rfingers  -90 -7.125020027 -90
rthumb  -83.81095123 -10.66927624 -59.6413269
rfemur  -11.95329571 13.94062042 12.3480711
rtibia  -1.164271474 -1.01938951 19.64373589
rfoot  0.2852375209 -20.51810455 -38.04024124
rtoes  4.009110451 19.60474014 -101.795433
lfemur  -5.487935066 -17.73563194 -22.62427521
ltibia  6.422735214 0.2316318452 8.364544868
lfoot  0.702935338 -23.22115517 34.45467377
ltoes  -8.55761528 -18.14484787 -115.7899628
139
root  34.8878485 36.56881137 -14.27374862 10.37095165 -0.3192925155 4.533055782
lowerback  -8.730009079 1.790550113 0.69796139
upperback  -3.947429895 1.910470009 -4.65403986
thorax  0.9827520251 0.7015619874 -5.049540043
lowerneck  -11.31809998 -9.261930466 -5.396240234
upperneck  11.13840008 -13.0454998 8.317399979
head  6.129916668 -6.113070011 2.271810055
lclavicle  0 -4.497500157e-015 -2.743230041e-014
lhumerus  -47.57929993 30.44000053 61.85010147
lradius  -0.1117162704 -6.507048965e-006 28.60950089
lwrist  3.192251654e-007 -3.790274832e-007 -30.51070023
lhand  -3.520533994e-031 -36.8227005 -10.63710022
lfingers  90 7.125020027 -90
lthumb  94.77182007 -25.4763279 100.9828873
rclavicle  0 -4.497500157e-015 -2.743230041e-014
rhumerus  56.94080353 -23.82890129 -51.10350037
rradius  -5.16745672e-007 2.214343908e-008 42.46709824
rwrist  0.0006954420824 -0.004670973402 -159.5839996
rhand  -3.185045644e-031 4.759829998 -5.176459789
rfingers  -90 -7.125020027 -90
rthumb  -83.77185059 -10.5833292 -59.28168106
rfemur  -11.98102188 13.88242245 12.31255722
rtibia  -1.192582607 -1.079169273 19.67741966
rfoot  0.2750067115 -20.59587288 -38.00086212
rtoes  3.994075537 19.60474014 -101.7506409
lfemur  -5.409730434 -17.76263428 -22.69804955
ltibia  6.497450829 0.2182450294 8.202255249
lfoot  0.6919894218 -23.13282204 34.4364357
ltoes  -8.577021599 -18.13592529 -115.8522949
140
root  34.88838016 36.56576562 -14.27422771 10.36745548 -0.2545366287 4.574170589
lowerback  -8.713489532 1.797979951 0.7265293598
upperback  -3.961129904 1.916800022 -4.66204977
thorax  0.9612429738 0.7036319971 -5.074100018
lowerneck  -11.30749989 -9.2853899 -5.404049873
upperneck  11.13869953 -13.07830143 8.32528019
head  6.129401207 -6.129230022 2.272219896
lclavicle  0 -4.497500157e-015 -2.743230041e-014
lhumerus  -47.55500031 30.3553009 61.87239838
lradius  -0.1117162704 -6.507048965e-006 28.62700081
lwrist  3.192251654e-007 -3.790274832e-007 -30.40509987
lhand  -3.518363092e-031 -36.7181015 -10.67800045
lfingers  90 7.125020027 -90
lthumb  94.73143768 -25.52013206 100.8747406
rclavicle  0 -4.497500157e-015 -2.743230041e-014
rhumerus  57.22859573 -23.8769989 -51.30960083
rradius  -5.16745672e-007 2.214343908e-008 42.07310104
rwrist  0.0006954420824 -0.004670973402 -159.2089996
rhand  -3.190808159e-031 4.877009869 -5.090240002
rfingers  -90 -7.125020027 -90
rthumb  -83.69550323 -10.66270924 -59.1583786
rfemur  -11.97805023 13.87001801 12.28289032
rtibia  -1.217423201 -1.094889641 19.71298409
rfoot  0.2369358242 -20.59660721 -38.0778389
rtoes  4.013553143 19.60474014 -101.80867
lfemur  -5.331641674 -17.83782959 -22.77915001
ltibia  6.552603722 0.1866455972 8.083415985
lfoot  0.6631300449 -23.03148842 34.38282776
ltoes  -8.58586216 -18.1318512 -115.8806992
141
root  34.88899291 36.56434788 -14.27552381 10.35963249 -0.2052919269 4.592349529
lowerback  -8.732340813 1.816110015 0.7539492249
upperback  -3.968100071 1.937190056 -4.687970161
thorax  0.9680579901 0.7124500275 -5.114860058
lowerneck  -11.27950001 -9.309929848 -5.416940212
upperneck  11.11639977 -13.11489964 8.357580185
head  6.133609295 -6.147344112 2.280772448
lclavicle  0 -4.497500157e-015 -2.743230041e-014
lhumerus  -47.5401001 30.26810074 61.88690186
lradius  -0.1117162704 -6.507048965e-006 28.66829872
lwrist  3.192251654e-007 -3.790274832e-007 -30.34589958
lhand  -3.517861026e-031 -36.74980164 -10.67959976
lfingers  90 7.125020027 -90
lthumb  94.74662781 -25.52065086 100.9087524
rclavicle  0 -4.497500157e-015 -2.743230041e-014
rhumerus  57.98809433 -24.08819962 -52.54219818
rradius  -5.16745672e-007 2.214343908e-008 41.45080185
rwrist  0.0006954420824 -0.004670973402 -157.8379974
rhand  -3.141665223e-031 4.993859768 -5.817249775
rfingers  -90 -7.125020027 -90
rthumb  -84.0437088 -10.04436398 -59.11199951
rfemur  -11.97368813 13.86440468 12.28625488
rtibia  -1.240038991 -1.078633428 19.73451424
rfoot  0.2333707511 -20.53414726 -38.1038475
rtoes  4.018955231 19.60474014 -101.8247681
lfemur  -5.249140263 -17.82231712 -22.8188858
ltibia  6.606728077 0.2045488805 7.959506512
lfoot  0.6746594906 -23.03696632 34.38451004
ltoes  -8.641670227 -18.10601616 -116.0601501
